HIERARCHY
ROOT Hips
{
  OFFSET 43.58 83.9632 9.7136
  CHANNELS 6 Xposition Yposition Zposition Zrotation Xrotation Yrotation
  JOINT spine
  {
    OFFSET 0 6.2448 0.359107
    CHANNELS 3 Zrotation Xrotation Yrotation
    JOINT spine1
    {
      OFFSET 0 9.06941 0
      CHANNELS 3 Zrotation Xrotation Yrotation
      JOINT spine2
      {
        OFFSET 0 8.69014 0
        CHANNELS 3 Zrotation Xrotation Yrotation
        JOINT Neck
        {
          OFFSET 0 22.3112 1.06372
          CHANNELS 3 Zrotation Xrotation Yrotation
          JOINT Head
          {
            OFFSET 0 6.74081 0
            CHANNELS 3 Zrotation Xrotation Yrotation
            End Site
            {
              OFFSET 0 16.3165 -5.38097
            }
          }
        }
        JOINT RightShoulder
        {
          OFFSET -3.65916 9.38468 -0.509514
          CHANNELS 3 Zrotation Xrotation Yrotation
          JOINT RightArm
          {
            OFFSET 0 12.3089 0
            CHANNELS 3 Zrotation Xrotation Yrotation
            JOINT RightArmRoll
            {
              OFFSET 0 6.21375 0
              CHANNELS 3 Zrotation Xrotation Yrotation
              JOINT RightForeArm
              {
                OFFSET 0 18.0985 0
                CHANNELS 3 Zrotation Xrotation Yrotation
                JOINT RightForeArmRoll
                {
                  OFFSET 0 6.97279 0
                  CHANNELS 3 Zrotation Xrotation Yrotation
                  JOINT RightHand
                  {
                    OFFSET 0 13.9929 0
                    CHANNELS 3 Zrotation Xrotation Yrotation
                    End Site
                    {
                      OFFSET 0 0 0
                    }
                  }
                }
              }
            }
          }
        }
        JOINT LeftShoulder
        {
          OFFSET 3.65916 9.38468 -0.509514
          CHANNELS 3 Zrotation Xrotation Yrotation
          JOINT LeftArm
          {
            OFFSET 0 12.3089 0
            CHANNELS 3 Zrotation Xrotation Yrotation
            JOINT LeftArmRoll
            {
              OFFSET 0 6.21375 0
              CHANNELS 3 Zrotation Xrotation Yrotation
              JOINT LeftForeArm
              {
                OFFSET 0 18.0985 0
                CHANNELS 3 Zrotation Xrotation Yrotation
                JOINT LeftForeArmRoll
                {
                  OFFSET 0 6.97279 0
                  CHANNELS 3 Zrotation Xrotation Yrotation
                  JOINT LeftHand
                  {
                    OFFSET 0 13.9929 0
                    CHANNELS 3 Zrotation Xrotation Yrotation
                    End Site
                    {
                      OFFSET 0 0 0
                    }
                  }
                }
              }
            }
          }
        }
      }
    }
  }
  JOINT RightUpLeg
  {
    OFFSET -5.53516 -1.015 -0.851454
    CHANNELS 3 Zrotation Xrotation Yrotation
    JOINT RightUpLegRoll
    {
      OFFSET 0 16.4075 0
      CHANNELS 3 Zrotation Xrotation Yrotation
      JOINT RightLeg
      {
        OFFSET 0 -20.3181 0
        CHANNELS 3 Zrotation Xrotation Yrotation
        JOINT RightLegRoll
        {
          OFFSET 0 20.3846 0
          CHANNELS 3 Zrotation Xrotation Yrotation
          JOINT RightFoot
          {
            OFFSET 0 16.9668 0
            CHANNELS 3 Zrotation Xrotation Yrotation
            JOINT RightToeBase
            {
              OFFSET 0 14.1834 0
              CHANNELS 3 Zrotation Xrotation Yrotation
              End Site
              {
                OFFSET 0.0060118 6.8689 -0.791746
              }
            }
          }
        }
      }
    }
  }
  JOINT LeftUpLeg
  {
    OFFSET 5.53516 -1.015 -0.851454
    CHANNELS 3 Zrotation Xrotation Yrotation
    JOINT LeftUpLegRoll
    {
      OFFSET 0 16.4076 0
      CHANNELS 3 Zrotation Xrotation Yrotation
      JOINT LeftLeg
      {
        OFFSET 0 20.3181 0
        CHANNELS 3 Zrotation Xrotation Yrotation
        JOINT LeftLegRoll
        {
          OFFSET 0 20.5731 0
          CHANNELS 3 Zrotation Xrotation Yrotation
          JOINT LeftFoot
          {
            OFFSET 0 16.7783 0
            CHANNELS 3 Zrotation Xrotation Yrotation
            JOINT LeftToeBase
            {
              OFFSET 0 14.1834 0
              CHANNELS 3 Zrotation Xrotation Yrotation
              End Site
              {
                OFFSET -0.0269423 6.86889 -0.791746
              }
            }
          }
        }
      }
    }
  }
}
MOTION
Frames: 14
Frame Time: 0.00208333
43.0031 83.9289 12.5083 1.19494 1.49477 -10.2564 0.113061 -0.958829 -0.151239 0.224578 2.08362 -0.309536 0.22851 3.72868 -0.313515 6.90563 12.4015 6.83492 -15.581 -1.49446 7.51226 68.1134 -0.47252 -1.29263 126.746 47.0352 -55.4037 6.36111e-015 -1.27222e-014 -9.54166e-015 35.4472 44.9689 -15.775 2.36365e-006 4.05786e-006 -3 8.02987 -4.95136 0.69747 -58.4782 -6.59321 4.0446 -94.565 14.1972 41.5968 -3.18055e-015 -1.19271e-014 -0 155.118 84.8148 -142.508 1.27619e-005 2.06353e-005 3 -8.0301 -4.95126 -0.697654 171.298 11.583 3.45207 180 7.01589e-015 179.122 179.291 14.0477 178.97 -6.08397e-008 -3.05059e-006 -0.0200217 -15.8181 67.1948 18.9284 8.12986 25.2402 -3.4856 -173.471 2.70708 -3.90764 4.54188e-006 -4.6773e-006 -1.05381 -0.757062 -14.0217 0.621524 -3.27834e-006 -3.51779e-006 -0.608302 25.5757 74.385 -26.9886 -8.15389 25.6371 2.97196 
42.9822 83.93 12.5035 1.19585 1.50377 -10.2582 0.11337 -0.961176 -0.150909 0.224505 2.07902 -0.30925 0.228437 3.72408 -0.313224 6.85968 12.4296 6.86574 -15.5432 -1.50933 7.53182 68.1333 -0.453445 -1.28503 126.363 46.9448 -54.969 3.18055e-015 -9.54166e-015 3.18055e-015 35.3456 45.0531 -15.7765 2.36365e-006 4.05786e-006 -3 8.02987 -4.95136 0.69747 -58.5002 -6.63141 4.06967 -94.7512 14.2329 41.377 -4.77083e-015 -1.59028e-015 -0 155.273 84.906 -142.768 1.27619e-005 2.06353e-005 3 -8.0301 -4.95126 -0.697654 171.309 11.5859 3.45381 180 7.01589e-015 179.123 179.273 14.0337 178.974 -6.08397e-008 -3.05059e-006 -0.0201296 -15.8074 67.1874 18.9229 8.12986 25.2402 -3.4856 -173.46 2.72107 -3.90604 4.54188e-006 -4.6773e-006 -1.05381 -0.745432 -14.0326 0.623494 -3.27834e-006 -3.51779e-006 -0.6092 25.5724 74.383 -26.985 -8.15409 25.6399 2.96752 
42.9314 83.9286 12.4843 1.19674 1.51291 -10.2609 0.113745 -0.963551 -0.150589 0.224497 2.07436 -0.308983 0.22843 3.71942 -0.312953 6.81281 12.4571 6.8964 -15.505 -1.52265 7.55115 68.1535 -0.433362 -1.27696 125.987 46.8523 -54.5392 0 0 -6.36111e-015 35.2461 45.1359 -15.7787 2.36365e-006 4.05786e-006 -3 8.02987 -4.95136 0.69747 -58.5223 -6.67066 4.09542 -94.936 14.2685 41.1589 3.53113e-031 -3.18055e-015 6.36111e-015 155.445 84.9974 -143.044 1.27619e-005 2.06353e-005 3 -8.0301 -4.95126 -0.697654 171.32 11.5884 3.45656 180 7.01589e-015 179.124 179.252 14.0175 178.979 -6.08397e-008 -3.05059e-006 -0.0202901 -15.7958 67.1784 18.9162 8.12986 25.2402 -3.4856 -173.45 2.73492 -3.90449 4.54188e-006 -4.6773e-006 -1.0538 -0.733893 -14.0433 0.625456 -3.27834e-006 -3.51779e-006 -0.610066 25.5688 74.3809 -26.9812 -8.15429 25.6428 2.9629 
42.915 83.9236 12.4765 1.19762 1.52213 -10.2643 0.114166 -0.965947 -0.150275 0.224533 2.06966 -0.308731 0.228467 3.71472 -0.312697 6.76528 12.4843 6.92696 -15.4664 -1.53489 7.57034 68.1741 -0.412573 -1.26856 125.615 46.7574 -54.1132 2.8625e-014 2.54444e-014 2.54444e-014 35.1479 45.2178 -15.7812 2.36365e-006 4.05786e-006 -3 8.02987 -4.95136 0.69747 -58.5443 -6.71065 4.12166 -95.1199 14.3042 40.942 -2.54444e-014 2.22639e-014 -0 155.632 85.0887 -143.335 1.27619e-005 2.06353e-005 3 -8.0301 -4.95126 -0.697654 171.331 11.5906 3.46002 180 7.01589e-015 179.125 179.231 14 178.984 -6.08397e-008 -3.05059e-006 -0.0204875 -15.7837 67.1682 18.9088 8.12986 25.2402 -3.4856 -173.439 2.74867 -3.90296 4.54188e-006 -4.6773e-006 -1.05379 -0.722416 -14.0539 0.627412 -3.27834e-006 -3.51779e-006 -0.610909 25.5651 74.3788 -26.9772 -8.1545 25.6458 2.95817 
42.9184 83.9231 12.4784 1.1985 1.53142 -10.268 0.114614 -0.968355 -0.149964 0.224595 2.06493 -0.308486 0.228531 3.71 -0.312449 6.71736 12.5112 6.95746 -15.4276 -1.5465 7.58943 68.1947 -0.391382 -1.25997 125.246 46.66 -53.6901 2.8625e-014 3.18055e-015 1.27222e-014 35.0505 45.2991 -15.784 2.36365e-006 4.05786e-006 -3 8.02987 -4.95136 0.69747 -58.5664 -6.75107 4.14816 -95.3032 14.3397 40.7257 -1.59028e-015 5.56597e-015 -0 155.833 85.18 -143.641 1.27619e-005 2.06353e-005 3 -8.0301 -4.95126 -0.697654 171.341 11.5927 3.46389 180 7.01589e-015 179.126 179.21 13.9817 178.989 -6.08397e-008 -3.05059e-006 -0.0207059 -15.7714 67.1574 18.9009 8.12986 25.2402 -3.4856 -173.428 2.76236 -3.90144 4.54188e-006 -4.6773e-006 -1.05378 -0.710975 -14.0644 0.629366 -3.27834e-006 -3.51779e-006 -0.61174 25.5614 74.3766 -26.9731 -8.15471 25.6489 2.95338 
42.8841 83.9253 12.4719 1.19937 1.54071 -10.2718 0.115068 -0.970766 -0.149655 0.224664 2.06021 -0.308243 0.228601 3.70527 -0.312203 6.66932 12.538 6.98796 -15.3887 -1.55796 7.6085 68.2154 -0.37009 -1.25133 124.881 46.5599 -53.2689 -6.36111e-015 -6.36111e-015 -6.36111e-015 34.9533 45.3804 -15.7869 2.36365e-006 4.05786e-006 -3 8.02987 -4.95136 0.69747 -58.5883 -6.79158 4.17475 -95.4862 14.3751 40.5095 -9.54166e-015 1.35174e-014 -3.18055e-015 156.047 85.2711 -143.959 1.27619e-005 2.06353e-005 3 -8.0301 -4.95126 -0.697654 171.351 11.5947 3.46786 180 7.01589e-015 179.127 179.188 13.9631 178.994 -6.08397e-008 -3.05059e-006 -0.0209295 -15.7589 67.1465 18.8929 8.12986 25.2402 -3.4856 -173.417 2.77604 -3.89993 4.54188e-006 -4.6773e-006 -1.05377 -0.699542 -14.075 0.63132 -3.27834e-006 -3.51779e-006 -0.612567 25.5576 74.3743 -26.969 -8.15492 25.6519 2.94856 
42.8642 83.9273 12.4752 1.20025 1.54998 -10.2754 0.115509 -0.973171 -0.149343 0.22472 2.05549 -0.307996 0.228658 3.70056 -0.311953 6.62143 12.565 7.01849 -15.35 -1.56972 7.62761 68.236 -0.348999 -1.24278 124.517 46.4569 -52.8486 1.27222e-014 -1.27222e-014 6.36111e-015 34.8558 45.4619 -15.7898 2.36365e-006 4.05786e-006 -3 8.02987 -4.95136 0.69747 -58.6103 -6.83188 4.2012 -95.6694 14.4101 40.2929 -2.38542e-015 -2.38542e-015 6.36111e-015 156.271 85.3621 -144.287 1.27619e-005 2.06353e-005 3 -8.0301 -4.95126 -0.697654 171.361 11.5968 3.47163 180 7.0159e-015 179.128 179.166 13.945 178.999 -6.08397e-008 -3.05059e-006 -0.0211427 -15.7466 67.1359 18.8852 8.12986 25.2402 -3.4856 -173.406 2.78975 -3.89841 4.54188e-006 -4.6773e-006 -1.05376 -0.688091 -14.0856 0.633275 -3.27834e-006 -3.51779e-006 -0.6134 25.5539 74.3722 -26.965 -8.15513 25.655 2.94378 
42.8314 83.9325 12.4836 1.20114 1.55918 -10.2786 0.115917 -0.975561 -0.149028 0.224744 2.0508 -0.30774 0.228683 3.69587 -0.311692 6.57396 12.5922 7.04911 -15.3114 -1.58226 7.64684 68.2564 -0.328412 -1.23448 124.154 46.3507 -52.4283 3.18055e-015 0 -9.54166e-015 34.7572 45.544 -15.7924 2.36365e-006 4.05786e-006 -3 8.02987 -4.95136 0.69747 -58.6322 -6.87165 4.22733 -95.8531 14.4447 40.0753 -7.15625e-015 8.74653e-015 -6.36111e-015 156.505 85.4529 -144.625 1.27619e-005 2.06353e-005 3 -8.0301 -4.95126 -0.697654 171.371 11.5991 3.47489 180 7.0159e-015 179.129 179.145 13.9279 179.004 -6.08397e-008 -3.05059e-006 -0.0213295 -15.7347 67.1261 18.878 8.12986 25.2402 -3.4856 -173.396 2.80353 -3.89687 4.54188e-006 -4.6773e-006 -1.05375 -0.676593 -14.0962 0.635234 -3.27834e-006 -3.51779e-006 -0.61425 25.5502 74.37 -26.961 -8.15534 25.6579 2.93908 
42.8139 83.9299 12.4509 1.20205 1.56828 -10.2811 0.116273 -0.977928 -0.148704 0.224716 2.04616 -0.307467 0.228656 3.69123 -0.311416 6.52717 12.6198 7.07987 -15.2733 -1.59604 7.66625 68.2765 -0.30863 -1.22655 123.79 46.241 -52.007 6.36111e-015 -6.36111e-015 3.18055e-015 34.6572 45.6273 -15.7946 2.36365e-006 4.05786e-006 -3 8.02987 -4.95136 0.69747 -58.654 -6.91056 4.25291 -96.0376 14.4787 39.8562 -2.38542e-015 1.19271e-014 2.22639e-014 156.746 85.5433 -144.97 1.27619e-005 2.06353e-005 3 -8.0301 -4.95126 -0.697654 171.382 11.6017 3.47734 180 7.0159e-015 179.13 179.126 13.9124 179.008 -6.08397e-008 -3.05059e-006 -0.0214743 -15.7235 67.1175 18.8717 8.12986 25.2402 -3.4856 -173.385 2.81742 -3.89531 4.54188e-006 -4.6773e-006 -1.05374 -0.665021 -14.1069 0.637199 -3.27834e-006 -3.51779e-006 -0.615126 25.5467 74.368 -26.9573 -8.15554 25.6608 2.93452 
42.7985 83.9273 12.4439 1.20297 1.57722 -10.2826 0.116556 -0.980262 -0.148371 0.224618 2.04158 -0.307173 0.228558 3.68664 -0.311116 6.48133 12.6481 7.11082 -15.2355 -1.61152 7.68591 68.2962 -0.289956 -1.21914 123.425 46.1276 -51.5839 9.54166e-015 -3.18055e-015 -0 34.555 45.712 -15.7963 2.36365e-006 4.05786e-006 -3 8.02987 -4.95136 0.69747 -58.6757 -6.94831 4.27776 -96.2234 14.5121 39.635 -7.95139e-015 9.54166e-015 9.54166e-015 156.992 85.6334 -145.319 1.27619e-005 2.06353e-005 3 -8.0301 -4.95126 -0.697654 171.394 11.6048 3.47867 180 7.0159e-015 179.131 179.107 13.8991 179.013 -6.08397e-008 -3.05059e-006 -0.0215611 -15.713 67.1108 18.8666 8.12986 25.2402 -3.4856 -173.374 2.83147 -3.8937 4.54188e-006 -4.6773e-006 -1.05374 -0.653349 -14.1178 0.639174 -3.27834e-006 -3.51779e-006 -0.616037 25.5435 74.3661 -26.9539 -8.15573 25.6636 2.93014 
42.761 83.9338 12.4722 1.20392 1.58599 -10.2828 0.116747 -0.982556 -0.148025 0.22443 2.03707 -0.306852 0.228369 3.68214 -0.310788 6.43671 12.6771 7.14201 -15.1984 -1.62916 7.70588 68.3153 -0.272693 -1.2124 123.057 46.01 -51.158 6.36111e-015 -9.54166e-015 3.18055e-015 34.45 45.7987 -15.7972 2.36365e-006 4.05786e-006 -3 8.02987 -4.95136 0.69747 -58.6974 -6.98456 4.30166 -96.4109 14.5447 39.4111 -5.56597e-015 1.59028e-015 -0 157.24 85.7231 -145.671 1.27619e-005 2.06353e-005 3 -8.0301 -4.95126 -0.697654 171.407 11.6083 3.47858 180 7.0159e-015 179.132 179.091 13.8886 179.016 -6.08397e-008 -3.05059e-006 -0.0215743 -15.7037 67.1063 18.8631 8.12986 25.2402 -3.4856 -173.363 2.84571 -3.89205 4.54188e-006 -4.6773e-006 -1.05374 -0.641548 -14.1289 0.64116 -3.27834e-006 -3.51779e-006 -0.616995 25.5406 74.3643 -26.9508 -8.1559 25.6662 2.926 
42.7489 83.9319 12.4485 1.2049 1.59452 -10.2816 0.116827 -0.984799 -0.147663 0.224133 2.03266 -0.306497 0.22807 3.67773 -0.310425 6.39357 12.7071 7.17348 -15.1621 -1.64943 7.72623 68.3338 -0.257141 -1.20646 122.687 45.888 -50.7285 3.49861e-014 0 2.8625e-014 34.3418 45.8876 -15.7973 2.36365e-006 4.05786e-006 -3 8.02987 -4.95136 0.69747 -58.719 -7.01901 4.32441 -96.6003 14.5764 39.1841 -1.35174e-014 7.15625e-015 -3.18055e-015 157.489 85.8123 -146.024 1.27619e-005 2.06353e-005 3 -8.0301 -4.95126 -0.697654 171.42 11.6125 3.47677 180 7.01591e-015 179.133 179.076 13.8816 179.02 -6.08397e-008 -3.05059e-006 -0.0214979 -15.6957 67.1046 18.8615 8.12986 25.2402 -3.4856 -173.352 2.86019 -3.89033 4.54188e-006 -4.6773e-006 -1.05374 -0.629591 -14.1402 0.643159 -3.27834e-006 -3.51779e-006 -0.618008 25.538 74.3628 -26.9482 -8.15607 25.6687 2.92215 
42.7217 83.9368 12.4562 1.20591 1.60279 -10.2786 0.116774 -0.986984 -0.147282 0.223707 2.02836 -0.306103 0.227641 3.67343 -0.310021 6.35217 12.7382 7.20528 -15.1266 -1.67279 7.74704 68.3515 -0.243605 -1.20147 122.312 45.7611 -50.2945 -1.58901e-030 -9.54166e-015 -9.54166e-015 34.2297 45.9792 -15.7963 2.36365e-006 4.05786e-006 -3 8.02987 -4.95136 0.69747 -58.7405 -7.05134 4.34581 -96.7921 14.6071 38.9534 -8.74653e-015 4.77083e-015 3.18055e-015 157.734 85.901 -146.373 1.27619e-005 2.06353e-005 3 -8.0301 -4.95126 -0.697654 171.435 11.6174 3.47293 180 7.01591e-015 179.134 179.065 13.8786 179.022 -6.08397e-008 -3.05059e-006 -0.0213164 -15.6893 67.106 18.8621 8.12986 25.2402 -3.4856 -173.34 2.87495 -3.88854 4.54188e-006 -4.6773e-006 -1.05375 -0.617452 -14.1518 0.645175 -3.27834e-006 -3.51779e-006 -0.619086 25.5358 74.3615 -26.946 -8.15622 25.6709 2.91863 
42.6964 83.9351 12.4545 1.20696 1.61076 -10.2735 0.11657 -0.989101 -0.146881 0.223134 2.02419 -0.305663 0.227064 3.66926 -0.309569 6.31279 12.7705 7.23748 -15.0921 -1.69971 7.76837 68.3684 -0.232385 -1.19757 121.933 45.6289 -49.8551 9.54166e-015 -3.18055e-015 -0 34.113 46.0739 -15.7941 2.36365e-006 4.05786e-006 -3 8.02987 -4.95136 0.69747 -58.7619 -7.08123 4.36565 -96.9867 14.6367 38.7184 1.03368e-014 -1.03368e-014 3.18055e-015 157.974 85.9893 -146.717 1.27619e-005 2.06353e-005 3 -8.0301 -4.95126 -0.697654 171.452 11.6232 3.46676 180 7.01591e-015 179.135 179.056 13.8803 179.024 -6.08397e-008 -3.05059e-006 -0.0210138 -15.6846 67.1113 18.8652 8.12986 25.2402 -3.4856 -173.329 2.89004 -3.88667 4.54188e-006 -4.6773e-006 -1.05376 -0.605102 -14.1637 0.647208 -3.27834e-006 -3.51779e-006 -0.620239 25.534 74.3605 -26.9445 -8.15636 25.6729 2.91549 
